<?xml version="1.0" standalone="no"?>
<!DOCTYPE svg PUBLIC "-//W3C//DTD SVG 20010904//EN"
 "http://www.w3.org/TR/2001/REC-SVG-20010904/DTD/svg10.dtd">
<svg version="1.0" xmlns="http://www.w3.org/2000/svg"
 width="1600.000000pt" height="1600.000000pt" viewBox="0 0 1600.000000 1600.000000"
 preserveAspectRatio="xMidYMid meet">
<metadata>
Created by potrace 1.11, written by Peter Selinger 2001-2013
</metadata>
<g transform="translate(0.000000,1600.000000) scale(0.100000,-0.100000)"
fill="#000000" stroke="none">
<path d="M7927 14334 c-1 -1 -78 -4 -172 -8 -180 -6 -266 -11 -355 -21 -30 -3
-73 -7 -95 -10 -43 -4 -124 -14 -165 -20 -14 -2 -45 -7 -70 -10 -64 -9 -105
-15 -240 -39 -46 -8 -184 -37 -220 -46 -19 -5 -46 -11 -60 -14 -21 -3 -69 -16
-240 -61 -231 -62 -585 -184 -761 -263 -24 -11 -78 -34 -119 -52 -88 -38 -405
-195 -470 -234 -25 -14 -62 -34 -82 -43 -21 -10 -38 -21 -38 -25 0 -5 -5 -8
-10 -8 -12 0 -153 -85 -310 -188 -258 -169 -513 -367 -760 -587 -138 -123
-521 -518 -592 -612 -12 -15 -25 -30 -28 -33 -3 -3 -49 -59 -102 -125 -114
-143 -279 -373 -368 -514 -36 -56 -73 -114 -82 -129 -10 -15 -22 -36 -28 -47
-6 -11 -16 -29 -23 -40 -51 -85 -154 -276 -218 -405 -69 -140 -169 -361 -169
-374 0 -3 -11 -29 -24 -58 -25 -55 -85 -211 -92 -238 -2 -8 -17 -53 -33 -100
-81 -228 -164 -539 -216 -810 -14 -74 -28 -147 -30 -165 -2 -11 -8 -49 -14
-85 -5 -36 -13 -87 -16 -115 -4 -27 -8 -61 -10 -75 -16 -114 -26 -232 -40
-460 -6 -85 -6 -543 0 -642 5 -106 15 -237 19 -273 2 -16 7 -63 11 -103 3 -41
8 -81 10 -90 1 -9 6 -42 10 -72 27 -216 109 -613 171 -833 41 -147 121 -400
139 -442 7 -16 34 -86 60 -155 26 -69 56 -143 65 -165 10 -22 32 -74 50 -115
83 -192 270 -547 393 -745 100 -161 315 -472 382 -553 8 -9 37 -46 66 -82 28
-36 61 -76 73 -90 11 -14 34 -41 50 -60 117 -143 454 -487 616 -631 418 -371
886 -688 1369 -929 129 -64 289 -140 295 -140 3 0 33 -13 68 -29 35 -15 119
-50 188 -75 69 -26 134 -52 145 -56 24 -11 224 -76 345 -113 68 -20 220 -61
350 -92 25 -7 263 -56 290 -61 14 -2 48 -9 75 -14 98 -18 390 -57 490 -65 101
-8 228 -18 280 -21 85 -5 568 -4 640 1 33 2 103 7 155 10 52 3 109 8 125 10
17 2 57 7 90 10 33 4 71 8 85 10 14 2 50 7 80 10 30 4 62 9 70 10 8 1 49 8 90
15 539 85 1085 251 1620 492 223 101 561 286 795 436 75 48 267 182 275 192 3
3 19 14 35 25 29 18 219 165 279 215 200 168 249 212 457 420 385 385 703 793
968 1245 46 77 87 147 92 155 19 32 236 468 257 520 13 30 32 73 42 95 16 35
53 132 136 355 58 159 170 541 188 645 3 17 10 45 15 63 5 17 8 32 6 32 -3 0
0 12 6 26 5 15 12 43 15 63 3 20 9 54 14 76 14 65 53 315 65 410 2 22 7 60 10
85 12 105 21 216 30 380 5 80 5 554 1 630 -10 159 -17 268 -21 290 -2 14 -6
54 -10 90 -4 36 -8 76 -10 90 -2 14 -6 50 -10 80 -4 30 -13 91 -20 135 -8 44
-16 96 -19 115 -49 338 -248 1015 -396 1345 -10 22 -32 74 -50 115 -37 85
-181 377 -237 478 -185 338 -473 757 -713 1037 -133 155 -303 337 -424 454
-104 100 -104 100 -211 195 -137 122 -147 131 -255 216 -141 111 -169 133
-209 159 -20 13 -38 27 -41 31 -9 13 -333 226 -460 302 -199 119 -524 288
-680 353 -36 15 -87 37 -115 49 -27 12 -66 28 -85 35 -19 8 -48 19 -65 26 -48
20 -192 72 -305 109 -398 131 -847 231 -1218 272 -29 3 -62 7 -72 9 -10 2 -59
7 -107 11 -48 3 -104 8 -123 10 -69 6 -538 22 -543 18z"/>
</g>
</svg>
